<?xml version="1.0" encoding="iso-8859-1"?>
<!-- Uploaded to: SVG Repo, www.svgrepo.com, Generator: SVG Repo Mixer Tools -->
<svg height="800px" width="800px" version="1.1" id="Layer_1" xmlns="http://www.w3.org/2000/svg" xmlns:xlink="http://www.w3.org/1999/xlink" 
	 viewBox="0 0 512.213 512.213" xml:space="preserve">
<g transform="translate(0 1)">
	<path style="fill:#FD9808;" d="M145.173,93.08v-51.2h17.067V7.747H59.84V41.88h17.067v110.933l-47.787,40.96
		c-6.827,6.827-2.56,18.773,6.827,18.773h40.96v256H59.84v34.133h392.533v-34.133h-17.067v-256h40.96
		c9.387,0,13.653-11.947,6.827-17.92L286.827,20.547c-17.067-16.213-44.373-16.213-61.44,0L145.173,93.08z"/>
	<path style="fill:#FFDD09;" d="M145.173,93.08v-51.2h17.067V7.747H59.84V41.88h17.067v110.933l-47.787,40.96
		c-6.827,6.827-2.56,18.773,6.827,18.773h40.96v256H59.84v34.133h366.933v-34.133h-17.067v-256h40.96
		c9.387,0,13.653-11.947,6.827-17.92L261.227,20.547c-17.067-16.213-22.187-16.213-39.253,0L145.173,93.08z"/>
	<g>
		<polygon style="fill:#54C9FD;" points="128.107,442.947 162.24,442.947 162.24,349.08 128.107,349.08 		"/>
		<polygon style="fill:#54C9FD;" points="290.24,238.147 384.107,238.147 384.107,204.013 290.24,204.013 		"/>
		<path style="fill:#54C9FD;" d="M307.307,238.147v58.88c0,36.693-34.133,69.12-71.68,69.12H162.24v59.733h73.387
			c72.533,0,131.413-58.027,131.413-128.853v-58.88H307.307z"/>
	</g>
	<path d="M452.373,511.213H59.84c-5.12,0-8.533-3.413-8.533-8.533v-34.133c0-5.12,3.413-8.533,8.533-8.533h8.533V221.08H35.947
		c-7.68,0-15.36-5.12-17.92-11.947c-2.56-7.68-0.853-15.36,5.12-21.333l45.227-39.253V50.413H59.84c-5.12,0-8.533-3.413-8.533-8.533
		V7.747c0-5.12,3.413-8.533,8.533-8.533h102.4c5.12,0,8.533,3.413,8.533,8.533V41.88c0,5.12-3.413,8.533-8.533,8.533h-8.533v23.04
		l65.707-59.733c20.48-19.627,52.907-19.627,73.387,0L489.067,187.8c5.973,5.12,7.68,13.653,5.12,20.48
		c-2.56,7.68-9.387,11.947-17.92,11.947H443.84V459.16h8.533c2.56,0,4.267,0.853,5.973,2.56s2.56,3.413,2.56,5.973v34.133
		C460.907,507.8,456.64,511.213,452.373,511.213z M68.373,494.147H443.84V477.08h-8.533c-5.12,0-8.533-3.413-8.533-8.533v-256
		c0-5.12,3.413-8.533,8.533-8.533h40.96c0,0,0.853,0,1.707-0.853c0.853-0.853,0-1.707-0.853-1.707L280.853,27.373
		c-14.507-13.653-35.84-13.653-49.493,0l-80.213,73.387c-2.56,2.56-5.973,2.56-9.387,1.707c-3.413-2.56-5.12-5.973-5.12-9.387v-51.2
		c0-5.12,3.413-8.533,8.533-8.533h8.533V16.28H68.373v17.067h8.533c5.12,0,8.533,3.413,8.533,8.533v110.933
		c0,2.56-0.853,5.12-2.56,6.827L35.093,200.6c-0.853,0.853-0.853,1.707-0.853,2.56c0,0.853,0.853,0.853,1.707,0.853h40.96
		c5.12,0,8.533,3.413,8.533,8.533v256c0,5.12-3.413,8.533-8.533,8.533h-8.533V494.147z"/>
	<path d="M162.24,451.48h-34.133c-5.12,0-8.533-3.413-8.533-8.533V349.08c0-5.12,3.413-8.533,8.533-8.533h34.133
		c5.12,0,8.533,3.413,8.533,8.533v93.867C170.773,448.067,167.36,451.48,162.24,451.48z M136.64,434.413h17.067v-76.8H136.64
		V434.413z"/>
	<path d="M384.107,246.68H290.24c-5.12,0-8.533-3.413-8.533-8.533v-34.133c0-5.12,3.413-8.533,8.533-8.533h93.867
		c5.12,0,8.533,3.413,8.533,8.533v34.133C392.64,243.267,389.227,246.68,384.107,246.68z M298.773,229.613h76.8v-17.067h-76.8
		V229.613z"/>
	<path d="M235.627,434.413H162.24c-5.12,0-8.533-3.413-8.533-8.533v-59.733c0-5.12,3.413-8.533,8.533-8.533h73.387
		c33.28,0,63.147-29.013,63.147-60.587v-58.88c0-5.12,3.413-8.533,8.533-8.533h59.733c5.12,0,8.533,3.413,8.533,8.533v58.88
		C375.573,372.973,312.427,434.413,235.627,434.413z M170.773,417.347h64.853c67.413,0,122.88-53.76,122.88-120.32V246.68H315.84
		v50.347c0,41.813-37.547,77.653-80.213,77.653h-64.853V417.347z"/>
</g>
</svg>